<svg height="512pt" viewBox="-57 0 512 512" width="512pt" xmlns="http://www.w3.org/2000/svg"><path d="m395.421875 247.117188c-4.527344-5.234376-9.652344-9.824219-15.222656-13.703126 3.613281-4.964843 5.75-11.0625 5.75-17.65625 0-12.105468-7.191407-22.558593-17.523438-27.328124 1.46875-7.25 1.984375-14.730469 1.4375-22.261719-.199219-2.824219-1.414062-5.484375-3.421875-7.492188-2-2.003906-4.65625-3.21875-7.480468-3.421875-1.980469-.144531-3.988282-.21875-5.96875-.21875-2.214844 0-4.410157.113282-6.59375.285156-.253907-.738281-.542969-1.464843-.871094-2.179687.492187-.324219.984375-.644531 1.464844-.984375l33.316406-23.527344c4.554687-3.226562 5.644531-9.566406 2.421875-14.140625-1.046875-1.480469-2.132813-2.878906-3.25-4.210937 3.832031-5.171875 6.910156-10.894532 8.988281-16.808594 1.621094-4.609375.289062-9.667969-3.421875-12.90625-.738281-.636719-1.542969-1.175781-2.359375-1.589844-1.871094-.960937-3.804688-1.820312-5.789062-2.582031 3.003906-10.269531 3.167968-20.992187.160156-30.832031-.648438-2.113282-1.871094-4-3.542969-5.460938-1.683594-1.46875-3.734375-2.433594-5.90625-2.773437-2.601563-.421875-5.277344-.636719-7.953125-.636719-7.765625 0-15.472656 1.734375-22.6875 4.976562-1.050781-1.921874-2.199219-3.785156-3.449219-5.578124-.550781-.789063-1.203125-1.515626-1.941406-2.164063-2.164063-1.882813-4.933594-2.921875-7.804687-2.921875-1.871094 0-3.742188.453125-5.417969 1.308594-6.199219 3.179687-12.015625 7.542968-16.960938 12.710937-1.859375-1.109375-3.8125-2.148437-5.882812-3.105469-1.347657-.621093-2.777344-.9375-4.257813-.9375-3.953125 0-7.574218 2.320313-9.214844 5.894532l-8.210937 17.796875c-1.273437-.816407-2.605469-1.59375-4.003906-2.304688 4.769531-13.496093 2.714843-26.792969-5.898438-35.335937-5.464843-5.425782-12.878906-8.292969-21.433593-8.292969-4.25 0-8.664063.730469-13.042969 2.136719-6.234375-12.898438-17.148438-20.871094-29.304688-20.871094-11.746093 0-22.449219 7.570312-28.773437 19.84375-4.738282-1.652344-9.53125-2.507812-14.148438-2.507812-8.558594 0-15.972656 2.867187-21.445312 8.296874-8.316406 8.25-10.507813 21.109376-6.257813 34.226563-3.8125 1.816406-7.183593 4.042969-10.0625 6.574219-1.652343-1.050782-3.601562-1.648438-5.625-1.648438-1.546875 0-3.101562.351563-4.496093 1.015625-2.335938 1.113281-4.535157 2.320313-6.621094 3.605469-.234375-.265625-.460938-.539062-.699219-.800781-6.007813-6.726563-13.351563-12.363281-21.238281-16.296875-1.710938-.851563-3.621094-1.300782-5.53125-1.300782-3.054688 0-5.992188 1.121094-8.265625 3.152344-.753907.675782-1.425781 1.441406-1.988281 2.265625-1.78125 2.613281-3.371094 5.355469-4.765626 8.210938-7.152343-2.800781-14.667968-4.285157-22.222656-4.285157-3.179687 0-6.355468.269532-9.402344.800782-2.289062.390625-4.421874 1.417968-6.179687 2.984375-1.71875 1.542969-2.972656 3.527343-3.628906 5.753906-2.984375 10.1875-2.902344 21.199219-.0625 31.832031-3.007813 1.066406-5.921875 2.332032-8.710938 3.804688-.894531.46875-1.730469 1.046875-2.5 1.730468-3.804687 3.402344-5.132812 8.703126-3.386719 13.503907 2.851563 7.816406 7.285157 15.3125 12.835938 21.796875-1.476562 1.746094-2.90625 3.597656-4.269531 5.578125-3.261719 4.746093-2.0625 11.273437 2.6875 14.558593l16.226562 11.175782c.269531 4.449218.886719 8.851562 1.859375 13.160156-12.226562 3.828125-21.125 15.253906-21.125 28.726562 0 6.589844 2.136719 12.691407 5.75 17.652344-5.574218 3.882813-10.695312 8.472656-15.226562 13.707032-1.851563 2.144531-2.871094 4.878906-2.871094 7.710937 0 2.835937 1.023438 5.574219 2.871094 7.707031 5.292968 6.117188 11.4375 11.410156 18.261718 15.730469 3.503907 2.214844 8.132813 1.171875 10.347657-2.328125 2.214843-3.5 1.175781-8.132812-2.324219-10.347656-4.785156-3.027344-9.160156-6.640625-13.042969-10.765625 12.722657-13.519531 30.480469-21.21875 49.160157-21.21875 14.882812 0 29.167968 4.898437 40.796874 13.71875l-49.441406.003906c-4.140625 0-7.5 3.355469-7.5 7.5 0 4.140625 3.359375 7.5 7.5 7.5l49.441406-.003906c-11.632812 8.824219-25.917968 13.722656-40.796874 13.722656-1.832032 0-3.6875-.074219-5.519532-.222656-4.128906-.34375-7.746094 2.738281-8.082031 6.867187-.335937 4.125 2.738281 7.746094 6.867187 8.082032 2.234376.179687 4.5.273437 6.734376.273437h.003906c5.804687 0 11.53125-.628906 17.109375-1.8125l58.257812 73.542969c-7.304687.332031-12.546875 6.183594-12.546875 14.179687v52.671875c0 8.234375 5.546875 14.210938 13.191406 14.210938 2.160157 0 4.347657-.492188 6.5-1.457032l17.253907-7.738281-3.726563 10.929688c-1.335937 3.921875.757813 8.183593 4.675782 9.523437 3.925781 1.335938 8.183593-.757812 9.523437-4.679687l5.804687-17.023438-8.640624 63.605469h-13.046876l4.289063-12.578125c1.335937-3.921875-.757813-8.183594-4.679687-9.519531-3.921876-1.339844-8.183594.757812-9.519532 4.675781l-6.058594 17.769531c-1.214843 3.558594-.730468 7.25 1.328126 10.125 2.058593 2.878906 5.394531 4.527344 9.15625 4.527344h91.03125c3.761718 0 7.097656-1.648438 9.15625-4.527344 2.058593-2.875 2.542968-6.566406 1.328124-10.125l-21.195312-62.15625 16.035156 7.191406c2.15625.96875 4.34375 1.457032 6.5 1.457032 3.835938 0 7.300782-1.550782 9.75-4.363282 2.253906-2.582031 3.441406-5.988281 3.441406-9.84375v-52.671874c0-7.757813-4.921874-13.503907-11.886718-14.148438l57.703125-73.535156c5.542969 1.164062 11.238281 1.773437 17.007812 1.773437h.003907c23.984374 0 46.726562-10.394531 62.390624-28.503906 1.859376-2.140625 2.878907-4.882813 2.878907-7.71875.003906-2.828125-1.015625-5.566406-2.871094-7.710937zm-31.394531-44.011719c4.15625 2.6875 6.921875 7.34375 6.921875 12.652343 0 3.914063-1.507813 7.472657-3.960938 10.152344-4.246093-1.914062-8.652343-3.464844-13.179687-4.640625 4.183594-5.628906 7.609375-11.738281 10.21875-18.164062zm-8.980469-33.039063c.550781 18.035156-6.164063 35.523438-18.660156 48.613282-1.121094-.042969-2.242188-.074219-3.367188-.074219-6.078125 0-12.070312.6875-17.890625 1.980469l16.574219-16.570313c2.929687-2.929687 2.929687-7.675781 0-10.605469-2.929687-2.929687-7.679687-2.929687-10.605469-.003906l-13.066406 13.066406c-.570312-4.984375-2.3125-9.75-5.136719-14.128906.773438-.859375 1.558594-1.703125 2.378907-2.523438 13.246093-13.242187 30.957031-20.320312 49.773437-19.753906zm-16.707031-30.164062c-.84375.59375-1.703125 1.148437-2.582032 1.667968-1.039062-.75-2.136718-1.453124-3.285156-2.113281 3.445313-10.761719 1.636719-21.351562-5.242187-28.355469-.257813-.261718-.519531-.511718-.789063-.761718 6.890625-2.277344 13.304688-3.171875 19.164063-2.636719 8.597656.785156 15.796875 4.597656 21.886719 11.613281zm24.902344-88.03125c1.625 6.683594 1.25 13.902344-.902344 20.894531-4.136719-.523437-8.347656-.652344-12.554688-.367187-1.726562.117187-3.445312.300781-5.15625.554687.019532-1.722656-.027344-3.449219-.148437-5.175781-.28125-4.125-.949219-8.167969-1.96875-12.078125 6.667969-3.125 13.835937-4.535157 20.730469-3.828125zm-40.496094-4.859375c3.902344 6.414062 6.234375 13.886719 6.769531 21.785156.285156 4.195313.046875 8.394531-.710937 12.46875-.480469 2.605469.445312 5.273437 2.441406 7.019531 1.996094 1.742188 4.765625 2.304688 7.28125 1.472656 3.957031-1.304687 8.085937-2.109374 12.273437-2.394531 7.832031-.53125 15.621094.769531 22.5 3.757813-1.324219 3.144531-3.023437 6.1875-5.015625 9.046875-6.355468-4.199219-13.476562-6.6875-21.320312-7.402344-6.910156-.628906-14.234375.167969-21.910156 2.335937.742187-7.9375.183593-15.277343-1.691407-21.972656-2.007812-7.140625-5.4375-13.363281-10.238281-18.648437 2.914062-2.890625 6.167969-5.421875 9.621094-7.46875zm-29.222656 10.765625c8.007812 4.714844 13.066406 11.097656 15.398437 19.402344 1.945313 6.949218 1.949219 15.066406.039063 24.25-1.796876.894531-3.609376 1.867187-5.4375 2.894531-1.207032.199219-2.414063.445312-3.625.773437-2.601563-5.078125-6.113282-9.1875-10.199219-12.035156.054687-.699219.089843-1.402344.089843-2.109375 0-5.378906-1.632812-10.527344-4.585937-15.144531zm-17.546876 45.816406c5.199219.070312 10.214844 5.378906 12.488282 13.214844.617187 2.140625 2.15625 3.890625 4.199218 4.785156 2.039063.890625 4.371094.832031 6.363282-.167969 3.359375-1.683593 6.78125-2.574219 9.894531-2.574219 2.230469 0 5.367187.480469 7.605469 2.761719 3.652344 3.71875 3.484375 10.96875-.421875 18.039063-1.074219 1.949218-1.226563 4.277344-.417969 6.355468.808594 2.074219 2.5 3.679688 4.613281 4.386719 4.953125 1.648438 8.804688 4.429688 10.828125 7.585938-13.648437 3.734375-26.171875 10.945312-36.457031 21.230469-.734375.734374-1.449219 1.484374-2.152344 2.242187-.320312-.238281-.632812-.484375-.960937-.71875-2.515625-1.789063-5.238282-3.367187-8.113282-4.738281 2.246094-5.917969 3.453126-11.980469 3.453126-17.917969 0-9.96875-3.375-18.585937-9.757813-24.917969-6.371094-6.316406-15.027344-9.65625-25.039063-9.65625-5.578124 0-11.265624 1.039063-16.847656 2.988282-.679687-1.488282-1.394531-2.945313-2.1875-4.347657.433594-1.0625 1.03125-1.996093 1.804688-2.753906 2.128906-2.085937 5.0625-2.527344 7.148437-2.527344 3.363281 0 7.21875 1.121094 10.859375 3.148438 1.957032 1.089843 4.300782 1.25 6.386719.433593 2.089844-.820312 3.699219-2.527343 4.394531-4.660156 2.378906-7.292968 7.285156-12.191406 12.207032-12.191406zm-76.824218 151.308594c-25.613282 0-46.449219-20.636719-46.449219-46.007813 0-25.367187 20.835937-46.003906 46.449219-46.003906 25.605468 0 46.441406 20.636719 46.441406 46.003906 0 25.371094-20.835938 46.007813-46.441406 46.007813zm19.757812 30.667968c-4.6875 9.957032-12.421875 16.609376-20.976562 16.609376-8.824219 0-16.773438-7.078126-21.410156-17.558594 3.984374-2.589844 7.800781-5.648438 11.34375-9.164063 1.875-1.859375 3.628906-3.816406 5.269531-5.851562 1.980469.195312 3.984375.296875 6.015625.296875 1.046875 0 2.09375-.027344 3.128906-.078125 1.957031 2.570312 4.101562 5.03125 6.429688 7.335937 3.199218 3.179688 6.628906 5.988282 10.199218 8.410156zm-77.820312-56.738281c5.855468 16.761719 18.871094 30.214844 35.398437 36.753907-9.011719 8.589843-20.257812 13.703124-30.289062 13.703124-4.164063 0-10.054688-.921874-14.476563-5.304687-4.398437-4.363281-5.324218-10.171875-5.324218-14.269531 0-10.21875 5.449218-21.71875 14.574218-30.769532.039063-.039062.078125-.078124.117188-.113281zm-12.96875-72.457031c0-4.101562.921875-9.90625 5.320312-14.269531 4.421875-4.386719 10.316406-5.304688 14.480469-5.304688 10.332031 0 21.957031 5.410157 31.09375 14.472657-16.875 5.828124-30.417969 18.761718-36.984375 35.183593-8.71875-8.941406-13.910156-20.121093-13.910156-30.082031zm72.246094-40.761719c8.820312 0 16.769531 7.078125 21.40625 17.558594-3.984376 2.589844-7.800782 5.648437-11.34375 9.164063-1.875 1.859374-3.628907 3.816406-5.269532 5.847656-1.976562-.191406-3.980468-.292969-6.007812-.292969-1.050782 0-2.097656.023437-3.136719.078125-1.953125-2.570312-4.101563-5.03125-6.425781-7.339844-3.203125-3.175781-6.632813-5.980468-10.203125-8.40625 4.6875-9.957031 12.425781-16.609375 20.980469-16.609375zm-19.582032-25.644531c0-10.007812 8.238282-18.152344 18.363282-18.152344s18.359374 8.144532 18.359374 18.152344c0 5.019531-2.074218 9.570312-5.417968 12.859375-3.742188-1.449219-7.679688-2.214844-11.726563-2.214844-4.648437 0-9.152343 1.007813-13.382812 2.910157-3.789063-3.328126-6.195313-8.164063-6.195313-13.554688zm41.027344 62.238281c9.007812-8.589843 20.253906-13.699219 30.285156-13.699219 4.164063 0 10.054688.921876 14.476563 5.304688 4.398437 4.363281 5.320312 10.167969 5.320312 14.269531 0 10.214844-5.445312 21.71875-14.574219 30.769531-.035156.039063-.078124.074219-.113281.109376-5.855469-16.761719-18.867187-30.214844-35.394531-36.753907zm34.457031 79.128907c8.714844 8.941406 13.90625 20.121093 13.90625 30.082031 0 4.101562-.921875 9.90625-5.324219 14.269531-4.417968 4.382812-10.308593 5.304688-14.46875 5.304688h-.003906c-10.332031 0-21.957031-5.410157-31.09375-14.46875 16.871094-5.828126 30.414063-18.765626 36.984375-35.1875zm9.898438-11.335938c-1.867188-1.851562-3.828125-3.582031-5.867188-5.199219.1875-1.945312.292969-3.914062.292969-5.90625 0-1.019531-.027344-2.035156-.078125-3.042969 2.582031-1.929687 5.054687-4.054687 7.371094-6.355468 3.222656-3.195313 6.066406-6.617188 8.523437-10.1875 10.097656 4.636718 16.84375 12.308594 16.84375 20.792968 0 8.753907-7.179687 16.632813-17.800781 21.21875-2.621094-3.976562-5.722656-7.785156-9.285156-11.320312zm-124.644531-148.707031c2.152343-.632813 3.910156-2.191407 4.789062-4.253907s.789062-4.410156-.246094-6.398437c-5.019531-9.65625-4.910156-19.214844.273438-24.359375 3.289062-3.261719 7.730468-3.945312 10.882812-3.945312 4.621094 0 9.660156 1.398437 14.574219 4.046874 1.960937 1.054688 4.285156 1.183594 6.355469.351563 2.066406-.832031 3.65625-2.539063 4.335937-4.65625 3.34375-10.375 10.273438-17.078125 17.65625-17.078125 7.515625 0 14.707031 7.179688 17.898438 17.863281.636719 2.136719 2.191406 3.875 4.238281 4.753907 2.046875.875 4.382812.792968 6.363281-.222657 4.679688-2.390625 9.464844-3.660156 13.84375-3.660156 3.148438 0 7.589844.6875 10.871094 3.941406 5.28125 5.238281 5.238281 15.320313-.109375 25.085938-1.078125 1.964843-1.21875 4.3125-.382812 6.394531.832031 2.082031 2.558593 3.679688 4.695312 4.355469 9.347656 2.964843 15.726562 8.746093 16.984375 15.132812-8.804687.511719-16.789063 6.09375-21.851563 14.984375-3.578124-1.164062-7.179687-1.761718-10.675781-1.761718-5 0-9.527343 1.222656-13.367187 3.53125 2.453125-4.613282 3.855468-9.859376 3.855468-15.429688 0-18.28125-14.96875-33.152344-33.359374-33.152344-18.394532 0-33.363282 14.871094-33.363282 33.152344 0 8.6875 3.390625 16.597656 8.914063 22.511719-1.347657 1.441406-2.640625 2.992187-3.859375 4.671875-1.8125 2.511718-3.410156 5.230468-4.800782 8.101562-5.988281-2.25-12.117187-3.457031-18.121093-3.457031-1.75 0-3.457031.109375-5.121094.3125.597656-1.636719 1.347656-3.292969 2.25-4.9375 1.074219-1.96875 1.214844-4.3125.378906-6.394531-.832031-2.082032-2.558593-3.679688-4.695312-4.355469-10.464844-3.316406-17.226563-10.164063-17.226563-17.441406 0-7.414063 7.242188-14.519531 18.019532-17.6875zm-48.082032 33.21875c2.410156-8.984375 7.589844-16.050781 15.738282-21.449219-.433594 1.929688-.675782 3.90625-.675782 5.917969 0 11.679687 7.617188 22.3125 19.96875 28.59375-1.324218 3.75-2.105468 7.484375-2.378906 11.105469-1.125.851562-2.199219 1.769531-3.210938 2.773437-3.789062 3.757813-6.503906 8.320313-8.097656 13.488281-2.042968-1.417968-4.207031-2.855468-6.492187-4.296875-4.925781-3.097656-9.757813-5.769531-14.492188-8.039062-2.390625-10.613281-2.519531-20.019531-.359375-28.09375zm-60.679687-28.820313c1.71875-.226562 3.476562-.339844 5.242187-.339844 5.730469 0 11.554688 1.21875 17.136719 3.472657-1.007813 4.183593-1.652344 8.492187-1.898437 12.882812-.128907 2.28125-.148438 4.558594-.0625 6.832031-2.25-.339843-4.519532-.578124-6.800782-.703124-4.382812-.246094-8.753906-.085938-13.042968.453124-2.109376-7.585937-2.371094-15.363281-.574219-22.597656zm12.773437 37.117188c4.785156.269531 9.507813 1.132812 14.035156 2.566406 2.527344.804688 5.289063.210938 7.265626-1.558594 1.976562-1.765625 2.871093-4.445312 2.355468-7.042968-.917968-4.644532-1.246094-9.429688-.972656-14.222657.523438-9.335937 3.25-18.183593 7.914062-25.742187 5.421876 3.011718 10.46875 7.050781 14.695313 11.789062.070313.074219.132813.152344.199219.226563-5.769532 6.125-9.820313 13.402343-12.074219 21.804687-2.089844 7.808594-2.558594 16.398438-1.433594 25.703125-9.011719-2.585937-17.578125-3.496093-25.605469-2.671875-8.835937.910156-16.816406 3.847656-23.890624 8.753906-3.730469-4.429687-6.792969-9.425781-8.960938-14.640624 8-3.757813 17.167969-5.492188 26.472656-4.964844zm-17.765625 40.203125c7.035157-8.648438 15.472657-13.378907 25.679688-14.429688 13.320312-1.367187 29.148437 3.625 46.855469 14.757813 5.132812 3.230468 9.625 6.484375 13.25 9.296875.457031 3.359375 1.285156 6.726562 2.4375 10.0625-.292969.261719-.585938.523437-.886719.777343-2.433594 1.144532-4.761719 2.433594-6.945313 3.878907-.4375-.457031-.851562-.929688-1.300781-1.378907-15.59375-15.589843-36.304687-24.171874-58.320313-24.171874-1.980468 0-3.988281.070312-5.976562.214843-2.820312.207031-5.476562 1.421875-7.472656 3.417969-.515625.511719-.976563 1.074219-1.382813 1.664062zm3.539063 72.898437c-2.453125-2.679687-3.960938-6.238281-3.960938-10.152344 0-6.8125 4.539063-12.582031 10.75-14.453124 2.878906 6.714843 6.648438 13.0625 11.25 18.851562-6.234375 1.226562-12.285156 3.160156-18.039062 5.753906zm38.519531-25.128906 22.332031 22.332031c-7.582031-2.609375-15.566406-4.121093-23.730468-4.429687-.746094-.679688-1.480469-1.371094-2.195313-2.089844-13.207031-13.199219-20.316406-31.195312-19.753906-49.757812 18.820312-.558594 36.53125 6.511718 49.773437 19.75.296875.296874.585938.601562.875.90625-3.085937 4.035156-5.199218 8.453124-6.269531 13.109374l-10.425781-10.425781c-2.929688-2.929687-7.679688-2.929687-10.609375 0-2.925781 2.929688-2.925781 7.679688.003906 10.605469zm35.214844 6.910156c0-8.753906 7.179687-16.636718 17.804687-21.21875 2.621094 3.976563 5.722656 7.785156 9.285156 11.320313 1.863282 1.847656 3.828126 3.582031 5.863282 5.199219-.1875 1.941406-.292969 3.910156-.292969 5.902343 0 1.019531.03125 2.035157.078125 3.042969-2.578125 1.933594-5.050781 4.054688-7.371094 6.355469-3.238281 3.210937-6.089844 6.652343-8.554687 10.234375-2.296875-1.058594-4.449219-2.292969-6.421875-3.691406-6.699219-4.765626-10.390625-10.855469-10.390625-17.144532zm-7.347657 76.714844c5.917969-2.527344 11.535157-5.734375 16.730469-9.589844 1.621094 3.675782 3.871094 6.976563 6.734375 9.816406 6.367188 6.316407 15.023438 9.652344 25.035156 9.652344 1.300782 0 2.609376-.058594 3.917969-.171875l26.152344 82.863281-8.128906-3.644531zm78.636719 128.742188-33.234375 14.902343v-49.507812l33.234375 14.898437c-1.324219 3.023438-2.066406 6.355469-2.066406 9.855469s.742187 6.832031 2.066406 9.851563zm11.484375 83.851562 9.378906-69.050781c.648438.050781 1.296876.082031 1.953126.082031.792968 0 1.582031-.039062 2.359374-.113281l9.382813 69.082031zm1.449219-93.703125c0-5.371094 4.433594-9.738281 9.882813-9.738281 5.449218 0 9.878906 4.367187 9.878906 9.738281 0 5.367187-4.429688 9.734375-9.878906 9.734375-5.449219 0-9.882813-4.367188-9.882813-9.734375zm50.433594 93.703125h-13.671875l-9.050782-66.636719zm15.5-68.949219-33.234375-14.902343c1.324218-3.019532 2.0625-6.351563 2.0625-9.851563 0-3.503906-.738282-6.832031-2.0625-9.855469l33.234375-14.898437zm-23.753907-55.296875-9.042968 4.054688 4.867187-15.570313c1.238281-3.957031-.964843-8.160156-4.921875-9.398437-3.949218-1.234375-8.160156.96875-9.394531 4.921875l-7.101563 22.714843c-2.136718-.59375-4.382812-.917968-6.707031-.917968-2.207031 0-4.347656.289062-6.386719.828125l-25.285156-80.117188c.308594.457031.613282.921875.933594 1.367188 7.710938 10.667969 18.195312 16.539062 29.523438 16.539062 11.328124 0 21.8125-5.871093 29.523437-16.539062 1.816406-2.507813 3.414063-5.226563 4.804687-8.101563.230469.085938.460938.164063.695313.246094l-9.371094 29.980469c-1.238281 3.953125.964844 8.160156 4.917969 9.394531 3.957031 1.238281 8.160156-.964844 9.398438-4.917969l9.792968-31.332031c.898438.050781 1.792969.085938 2.683594.085938h.003906c10.011719 0 18.667969-3.339844 25.035156-9.652344 3.449219-3.425782 6.011719-7.515625 7.648438-12.125 5.453125 4.148437 11.390625 7.582031 17.660156 10.25zm101.578126-96.703125h-.003907c-14.875 0-29.15625-4.898437-40.792969-13.722656h49.4375c4.144532 0 7.5-3.355469 7.5-7.5 0-4.140625-3.355468-7.5-7.5-7.5h-49.441406c11.632813-8.820313 25.917969-13.722656 40.796875-13.722656 18.679688 0 36.441407 7.703125 49.160157 21.222656-12.722657 13.519531-30.480469 21.222656-49.15625 21.222656zm0 0"/><path d="m199.148438 179.511719c-16.300782 0-29.5625 13.179687-29.5625 29.382812 0 16.207031 13.261718 29.386719 29.5625 29.386719 16.300781 0 29.566406-13.179688 29.566406-29.386719 0-16.203125-13.265625-29.382812-29.566406-29.382812zm0 43.769531c-8.03125 0-14.5625-6.453125-14.5625-14.386719 0-7.929687 6.53125-14.382812 14.5625-14.382812s14.566406 6.453125 14.566406 14.382812c0 7.933594-6.535156 14.386719-14.566406 14.386719zm0 0"/></svg>